<mxfile host="Electron" agent="Mozilla/5.0 (Windows NT 10.0; Win64; x64) AppleWebKit/537.36 (KHTML, like Gecko) draw.io/26.0.16 Chrome/132.0.6834.196 Electron/34.2.0 Safari/537.36" version="26.0.16">
  <diagram name="第 1 页" id="VX8x2q7U5yT6BQhmhuAg">
    <mxGraphModel dx="68" dy="43" grid="1" gridSize="3.937" guides="1" tooltips="1" connect="1" arrows="1" fold="1" page="1" pageScale="1" pageWidth="48" pageHeight="48" background="#464647" math="0" shadow="0">
      <root>
        <mxCell id="0" />
        <mxCell id="1" parent="0" />
        <mxCell id="kqCtoCzc44o2Xh97gpxj-1" value="" style="ellipse;whiteSpace=wrap;html=1;fillColor=none;strokeColor=#EBEBEB;strokeWidth=1.9685;" parent="1" vertex="1">
          <mxGeometry x="3.9400000000000004" y="3.6099999999999994" width="33.49" height="21.68" as="geometry" />
        </mxCell>
        <mxCell id="kqCtoCzc44o2Xh97gpxj-3" value="" style="ellipse;whiteSpace=wrap;html=1;aspect=fixed;fillColor=#EBEBEB;strokeColor=none;" parent="1" vertex="1">
          <mxGeometry x="19.039999999999996" y="12.8" width="3.29" height="3.29" as="geometry" />
        </mxCell>
      </root>
    </mxGraphModel>
  </diagram>
</mxfile>
